<svg width="450" height="415" viewBox="0 0 450 415" fill="none" xmlns="http://www.w3.org/2000/svg">
<path d="M314.702 227.472C316.249 228.366 317.202 230.016 317.202 231.802L317.202 295.101C317.202 296.887 316.249 298.538 314.702 299.431L259.884 331.081C258.337 331.974 256.431 331.974 254.884 331.081L200.066 299.431C198.519 298.538 197.566 296.887 197.566 295.101L197.566 231.802C197.566 230.016 198.519 228.366 200.066 227.472L254.884 195.823C256.431 194.93 258.337 194.93 259.884 195.823L314.702 227.472Z" fill="url(#paint0_radial_18_2047)" stroke="#741C00" stroke-width="5"/>
<path d="M184.136 227.882C185.683 228.776 186.636 230.426 186.636 232.213L186.636 295.511C186.636 297.298 185.683 298.948 184.136 299.841L129.318 331.491C127.771 332.384 125.865 332.384 124.318 331.491L69.4999 299.841C67.9529 298.948 66.9999 297.297 66.9999 295.511L66.9999 232.212C66.9999 230.426 67.9529 228.776 69.4999 227.882L124.318 196.233C125.865 195.34 127.771 195.34 129.318 196.233L184.136 227.882Z" fill="url(#paint1_radial_18_2047)" stroke="#741C00" stroke-width="5"/>
<path d="M380.34 114.604C381.887 115.497 382.84 117.148 382.84 118.934L382.84 182.233C382.84 184.019 381.887 185.67 380.34 186.563L325.522 218.212C323.975 219.105 322.069 219.105 320.522 218.212L265.704 186.563C264.157 185.67 263.204 184.019 263.204 182.233L263.204 118.934C263.204 117.148 264.157 115.497 265.704 114.604L320.522 82.9547C322.069 82.0615 323.975 82.0615 325.522 82.9547L380.34 114.604Z" fill="url(#paint2_radial_18_2047)" stroke="#741C00" stroke-width="5"/>
<path d="M249.775 115.014C251.322 115.907 252.275 117.558 252.275 119.344L252.275 182.643C252.275 184.429 251.322 186.08 249.775 186.973L194.956 218.622C193.409 219.515 191.503 219.515 189.956 218.622L135.138 186.973C133.591 186.08 132.638 184.429 132.638 182.643L132.638 119.344C132.638 117.558 133.591 115.907 135.138 115.014L189.956 83.3647C191.503 82.4715 193.409 82.4715 194.956 83.3647L249.775 115.014Z" fill="url(#paint3_radial_18_2047)" stroke="#741C00" stroke-width="5"/>
<path d="M186.022 151.024C187.569 151.917 188.522 153.568 188.522 155.354L188.522 176.519C188.522 178.305 187.569 179.956 186.022 180.849L167.693 191.431C166.146 192.324 164.24 192.324 162.693 191.431L144.364 180.849C142.817 179.956 141.864 178.305 141.864 176.519L141.864 155.354C141.864 153.568 142.817 151.917 144.364 151.024L162.693 140.442C164.24 139.549 166.146 139.549 167.693 140.442L186.022 151.024Z" fill="url(#paint4_radial_18_2047)" stroke="#1F0700" stroke-width="5"/>
<path d="M214.771 104.118C216.318 105.011 217.271 106.662 217.271 108.448L217.271 129.613C217.271 131.399 216.318 133.05 214.771 133.943L196.442 144.525C194.895 145.418 192.989 145.418 191.442 144.525L173.113 133.943C171.566 133.05 170.613 131.399 170.613 129.613L170.613 108.448C170.613 106.662 171.566 105.011 173.113 104.118L191.442 93.5356C192.989 92.6424 194.895 92.6424 196.442 93.5356L214.771 104.118Z" fill="url(#paint5_radial_18_2047)" stroke="#1F0700" stroke-width="5"/>
<path d="M241.709 150.776C243.256 151.669 244.209 153.32 244.209 155.106L244.209 176.271C244.209 178.057 243.256 179.708 241.709 180.601L223.38 191.183C221.833 192.077 219.927 192.077 218.38 191.183L200.051 180.601C198.504 179.708 197.551 178.057 197.551 176.271L197.551 155.106C197.551 153.32 198.504 151.669 200.051 150.776L218.38 140.194C219.927 139.301 221.833 139.301 223.38 140.194L241.709 150.776Z" fill="url(#paint6_radial_18_2047)" stroke="#1F0700" stroke-width="5"/>
<defs>
<radialGradient id="paint0_radial_18_2047" cx="0" cy="0" r="1" gradientUnits="userSpaceOnUse" gradientTransform="translate(257.384 263.452) rotate(150) scale(69.0722)">
<stop stop-color="#FFB800"/>
<stop offset="0.749759" stop-color="#ED4915"/>
</radialGradient>
<radialGradient id="paint1_radial_18_2047" cx="0" cy="0" r="1" gradientUnits="userSpaceOnUse" gradientTransform="translate(126.818 263.862) rotate(150) scale(69.0722)">
<stop stop-color="#FFB800"/>
<stop offset="0.749759" stop-color="#ED4915"/>
</radialGradient>
<radialGradient id="paint2_radial_18_2047" cx="0" cy="0" r="1" gradientUnits="userSpaceOnUse" gradientTransform="translate(323.022 150.583) rotate(150) scale(69.0722)">
<stop stop-color="#FFB800"/>
<stop offset="0.749759" stop-color="#ED4915"/>
</radialGradient>
<radialGradient id="paint3_radial_18_2047" cx="0" cy="0" r="1" gradientUnits="userSpaceOnUse" gradientTransform="translate(192.456 150.993) rotate(150) scale(69.0722)">
<stop stop-color="#FFB800"/>
<stop offset="0.749759" stop-color="#ED4915"/>
</radialGradient>
<radialGradient id="paint4_radial_18_2047" cx="0" cy="0" r="1" gradientUnits="userSpaceOnUse" gradientTransform="translate(165.193 165.937) rotate(150) scale(26.9381)">
<stop stop-color="#FFB800"/>
<stop offset="0.749759" stop-color="#ED4915"/>
</radialGradient>
<radialGradient id="paint5_radial_18_2047" cx="0" cy="0" r="1" gradientUnits="userSpaceOnUse" gradientTransform="translate(193.942 119.03) rotate(150) scale(26.9381)">
<stop stop-color="#FFB800"/>
<stop offset="0.749759" stop-color="#ED4915"/>
</radialGradient>
<radialGradient id="paint6_radial_18_2047" cx="0" cy="0" r="1" gradientUnits="userSpaceOnUse" gradientTransform="translate(220.88 165.689) rotate(150) scale(26.9381)">
<stop stop-color="#FFB800"/>
<stop offset="0.749759" stop-color="#ED4915"/>
</radialGradient>
</defs>
</svg>
