<svg width="209" height="180" viewBox="0 0 209 180" fill="none" xmlns="http://www.w3.org/2000/svg">
<path d="M116.695 40.2339L120.053 52.2481L120.177 52.7403L120.672 52.6011C135.07 48.5511 142.753 40.2612 146.477 31.5179C150.19 22.7993 149.952 13.6669 148.588 7.90325L148.555 7.76439L148.453 7.6638C147.706 6.92128 147.33 6.18782 147.187 5.49893C147.044 4.80787 147.129 4.12548 147.361 3.47646C147.629 2.73066 148.087 2.04439 148.589 1.47481C148.429 2.54336 148.493 3.45486 148.746 4.22578C149.123 5.37378 149.9 6.14823 150.845 6.64091C152.644 7.57946 155.085 7.51861 156.801 7.19891C188.4 18.5719 194.296 37.8436 193.419 46.6186C189.368 44.2615 186.147 43.8855 183.644 45.0693C181.031 46.3048 179.391 49.1551 178.395 52.6511C176.563 59.0856 176.792 68.1332 177.624 75.1016C175.445 72.6876 172.823 71.6874 169.98 71.7495C166.661 71.8221 163.093 73.3397 159.612 75.5881C153.385 79.6101 147.267 86.0834 143.065 91.4048C144.234 85.9902 144.474 81.5746 144.264 78.1822C144.026 74.3436 143.209 71.7811 142.478 70.5711L142.357 70.3706L142.126 70.3352C138.425 69.7694 135.2 71.4278 132.709 73.6468C130.785 75.3605 129.262 77.4391 128.245 79.1908C128.064 78.483 127.753 77.9268 127.319 77.5172C126.585 76.8261 125.601 76.6476 124.613 76.7292C122.676 76.8891 120.425 78.0669 118.947 79.0776C116.512 80.1568 114.317 81.4445 112.642 82.5765C111.8 83.146 111.085 83.6785 110.536 84.1282C109.998 84.5684 109.587 84.9542 109.38 85.2288L109.193 85.4769L109.332 85.7547C112.229 91.5125 112.514 97.9699 111.671 103.733C110.839 109.425 108.913 114.395 107.379 117.26C102.145 120.88 101.082 126.359 101.838 131.64C102.487 136.165 104.473 140.605 106.383 143.774C99.41 140.103 96.7979 134.754 96.3775 129.458C95.9231 123.734 98.03 118.024 100.124 114.519L100.138 114.495L100.15 114.47C107.785 97.6654 98.821 84.4074 93.329 79.8315C91.0963 77.0783 88.7994 76.4193 86.7972 76.8559C85.119 77.2219 83.745 78.3382 82.8673 79.39C82.5331 78.9968 82.2189 78.6267 81.923 78.2781C80.7755 76.9262 79.9021 75.8972 79.1949 75.1016C78.2352 74.0219 77.5543 73.3405 76.8782 72.8477C76.1926 72.348 75.5329 72.0576 74.6462 71.7285C74.377 71.6285 74.0879 71.5254 73.7694 71.4117C73.0331 71.1489 72.1394 70.8299 70.9697 70.3649C70.1891 70.0545 69.4613 70.0648 68.8358 70.4335C68.2367 70.7868 67.8166 71.4206 67.5158 72.1749C66.9149 73.6815 66.6854 75.9383 66.6713 78.4609C66.6473 82.7812 67.2576 88.0758 67.9252 92.2426C57.7494 78.7408 49.7733 73.1692 43.8332 71.8449C40.7248 71.152 38.175 71.6235 36.1903 72.7316C34.994 73.3996 34.0153 74.2919 33.247 75.2799C34.1823 67.312 34.2062 61.246 33.5932 56.6909C32.9234 51.7137 31.4861 48.4883 29.5916 46.5729C27.6783 44.6385 25.3534 44.095 23.0624 44.3713C21.1187 44.6058 19.1961 45.4283 17.5313 46.4823C18.0807 34.0599 24.1996 24.9721 31.7266 18.6242C39.4114 12.1433 48.546 8.53707 54.6433 7.19519C57.9236 7.98204 60.0121 7.25682 61.2289 5.85747C62.1151 4.83834 62.4756 3.53042 62.5534 2.39172C63.6449 3.41898 63.8909 4.39998 63.8003 5.20629C63.685 6.23283 63.0091 7.12751 62.3983 7.63336L62.267 7.74212L62.2295 7.90844C58.7006 23.5566 62.5996 34.7425 68.9558 42.3505C75.293 49.9357 84.0385 53.9257 90.1743 55.2809L90.5205 55.3573L90.7072 55.0558C91.5782 53.6491 93.2935 51.4501 95.5837 49.4748C97.8763 47.4976 100.707 45.7768 103.81 45.2629L103.968 45.2368L104.081 45.1242C105.683 43.5317 107.56 40.8894 107.823 38.1691C107.956 36.7882 107.673 35.3824 106.726 34.1098C105.786 32.8458 104.223 31.7568 101.877 30.9337L101.399 30.7659L101.237 31.2465C101.148 31.5143 101.07 31.8003 100.996 32.0812C100.988 32.1094 100.981 32.1375 100.973 32.1657C100.905 32.4224 100.838 32.6763 100.76 32.93C100.588 33.4932 100.378 34.0129 100.052 34.4454C99.4393 35.2569 98.3033 35.9074 95.7222 35.5868L95.5912 35.5705L95.4693 35.621C94.0504 36.2086 93.155 36.9204 92.3604 37.7394C92.0244 38.0857 91.7043 38.4535 91.3768 38.8299C91.3242 38.8903 91.2715 38.9509 91.2184 39.0117C91.0235 39.2351 90.8225 39.4634 90.6082 39.6974C90.4396 38.8929 90.1701 37.9518 89.7804 37.0814C89.3858 36.2 88.8315 35.3102 88.0705 34.7527C89.4037 34.0956 90.9734 33.2298 92.1402 32.3772C92.8531 31.8563 93.4874 31.2902 93.7842 30.7349C93.9374 30.4482 94.0353 30.0988 93.9274 29.7391C93.8394 29.4456 93.6386 29.2251 93.3856 29.0618C92.7438 27.1039 92.208 24.6806 93.418 22.2754L93.452 22.2079L93.4644 22.1334L94.3159 17.0556L95.1675 22.1334L96.1455 22.1727L97.4468 16.9992L97.8519 21.428L97.881 21.7458L98.1814 21.8533C98.9 22.1104 99.7098 22.3443 100.565 22.5855C100.687 22.6197 100.809 22.6541 100.933 22.6887C101.684 22.8996 102.469 23.1203 103.279 23.3736C105.161 23.9627 107.141 24.7197 108.99 25.897C112.656 28.2316 115.885 32.266 116.677 40.1422L116.682 40.1925L116.695 40.2339Z" fill="black" stroke="black"/>
<path d="M78.5397 99.9601C79.4593 100.388 80.554 100.06 81.0865 99.1969L110.361 51.725C111.137 50.4667 112.963 50.4561 113.753 51.7053L192.406 175.995C193.249 177.327 192.292 179.065 190.716 179.065H3.30468C1.80155 179.065 0.835641 177.469 1.53286 176.137L47.8093 87.7512C48.3049 86.8046 49.457 86.4148 50.4255 86.8659L78.5397 99.9601Z" fill="url(#paint0_radial_16_2)"/>
<path d="M112.104 106.182C112.782 105.304 114.045 105.146 114.919 105.83L141.307 126.482C142.246 127.217 143.616 126.971 144.242 125.956L157.352 104.697C158.123 103.447 159.934 103.427 160.733 104.66L207 176.095C207.862 177.425 206.907 179.182 205.322 179.182H29.2517C27.49 179.182 26.5888 177.069 27.8081 175.798L74.8472 126.744C75.4422 126.123 76.3673 125.953 77.1447 126.32L89.9031 132.344C90.752 132.745 91.7656 132.502 92.3396 131.759L112.104 106.182Z" fill="url(#paint1_radial_16_2)"/>
<path d="M78.5397 99.9601C79.4593 100.388 80.554 100.06 81.0865 99.1969L110.361 51.725C111.137 50.4666 112.963 50.456 113.753 51.7053L125.978 71.0222C126.304 71.5383 126.377 72.1753 126.175 72.7518L122.527 83.1838C122.052 84.5425 120.341 84.9696 119.283 83.9933L112.483 77.7163C111.445 76.7579 109.767 77.1492 109.26 78.468L100.859 100.311C100.291 101.787 98.3146 102.051 97.3792 100.775L96.5897 99.6988C95.7427 98.5438 93.9918 98.6275 93.2587 99.858L84.0261 115.356C83.3674 116.461 81.8512 116.666 80.9228 115.775L73.5856 108.731C72.7226 107.903 71.3302 108.012 70.6072 108.965L63.7871 117.955C63.084 118.882 61.7413 119.015 60.8695 118.245L42.1989 101.749C41.5092 101.14 41.3244 100.138 41.7513 99.3227L47.8093 87.7513C48.3049 86.8047 49.457 86.4148 50.4256 86.8659L78.5397 99.9601Z" fill="url(#paint2_diamond_16_2)"/>
<defs>
<radialGradient id="paint0_radial_16_2" cx="0" cy="0" r="1" gradientUnits="userSpaceOnUse" gradientTransform="translate(82.3072 106.744) rotate(-4.89911) scale(15.1378 35.6115)">
<stop stop-color="#3F140E"/>
<stop offset="1" stop-color="#4F110E"/>
</radialGradient>
<radialGradient id="paint1_radial_16_2" cx="0" cy="0" r="1" gradientUnits="userSpaceOnUse" gradientTransform="translate(105.146 120.534) rotate(67.76) scale(114.994 274.809)">
<stop stop-color="#1F0306"/>
<stop offset="0.760417" stop-color="#3A080B"/>
</radialGradient>
<radialGradient id="paint2_diamond_16_2" cx="0" cy="0" r="1" gradientUnits="userSpaceOnUse" gradientTransform="translate(96.5278 143.373) rotate(-97.681) scale(132.188 159.867)">
<stop stop-color="#FB0E01"/>
<stop offset="1" stop-color="#FC7C15"/>
</radialGradient>
</defs>
</svg>
