<svg width="291" height="250" viewBox="0 0 291 250" fill="none" xmlns="http://www.w3.org/2000/svg">
<path d="M87.0052 10.7793L86.8739 10.8881L86.8364 11.0544C81.9359 32.7848 87.3516 48.2964 96.161 58.8408C104.951 69.3622 117.086 74.899 125.596 76.7785L125.942 76.8549L126.129 76.5534C127.352 74.5787 129.753 71.5014 132.958 68.7375C136.164 65.9715 140.138 63.5517 144.507 62.828L144.665 62.8019L144.778 62.6893C146.996 60.4851 149.572 56.8465 149.931 53.1256C150.113 51.2445 149.728 49.3373 148.442 47.6097C147.164 45.8908 145.026 44.3932 141.783 43.2555L141.305 43.0877L141.143 43.5683C141.021 43.9344 140.914 44.3269 140.811 44.7184L140.779 44.836C140.685 45.193 140.59 45.5503 140.481 45.9072C140.239 46.6998 139.938 47.4489 139.463 48.078C138.554 49.2827 136.89 50.1955 133.254 49.7437L133.123 49.7274L133.001 49.7779C131.055 50.584 129.83 51.558 128.738 52.6828C128.275 53.1608 127.833 53.6684 127.377 54.1926C127.303 54.2769 127.23 54.3616 127.155 54.4467C126.806 54.8471 126.441 55.2602 126.041 55.6876C125.817 54.5042 125.424 53.0454 124.826 51.7103C124.232 50.3817 123.391 49.08 122.234 48.3603C124.146 47.4327 126.474 46.1652 128.175 44.9218C129.166 44.1978 130.017 43.4317 130.407 42.7012C130.607 42.3268 130.721 41.8959 130.592 41.4634C130.48 41.0907 130.214 40.806 129.861 40.5926C128.955 37.8462 128.159 34.3773 129.895 30.9269L129.929 30.8594L129.941 30.7849L131.32 22.5611L132.699 30.7849L133.678 30.8241L135.77 22.5046L136.439 29.8173L136.468 30.1351L136.769 30.2426C137.762 30.598 138.883 30.9221 140.075 31.2579C140.244 31.3055 140.414 31.3533 140.586 31.4015C141.631 31.6951 142.728 32.0033 143.858 32.3568C146.486 33.1795 149.261 34.2396 151.856 35.8921C157.016 39.177 161.541 44.8499 162.65 55.8722L162.655 55.9225L162.67 55.9708L162.67 55.9711L162.671 55.9721L162.672 55.9762L162.677 55.993L162.698 56.0598C162.716 56.1189 162.743 56.2068 162.778 56.3221C162.849 56.5525 162.953 56.8919 163.084 57.3273C163.347 58.1979 163.721 59.4521 164.165 60.9852C165.053 64.0517 166.222 68.2324 167.343 72.6907L167.468 73.1893L167.963 73.0501C187.954 67.4271 198.604 55.9256 203.766 43.8069C208.917 31.713 208.586 19.0413 206.694 11.0492L206.661 10.9104L206.56 10.8098C205.497 9.75267 204.951 8.69806 204.743 7.69621C204.535 6.69218 204.659 5.70503 204.993 4.77418C205.456 3.48487 206.314 2.32594 207.194 1.43683C206.842 3.18618 206.902 4.63464 207.292 5.82253C207.798 7.3646 208.841 8.40614 210.119 9.0725C212.585 10.3588 215.962 10.2712 218.337 9.82071C262.805 25.8073 270.87 53.0427 269.468 65.2322C263.731 61.8283 259.234 61.2957 255.779 62.9293C252.219 64.6127 249.958 68.5117 248.576 73.3622C245.979 82.4807 246.366 95.406 247.586 105.179C244.508 101.51 240.758 100.007 236.675 100.096C232.107 100.196 227.175 102.287 222.341 105.409C213.43 111.165 204.669 120.545 198.818 128.066C200.602 120.158 200.971 113.747 200.669 108.869C200.339 103.54 199.205 100.008 198.211 98.3607L198.09 98.1602L197.858 98.1248C192.786 97.3493 188.352 99.6193 184.907 102.688C182.082 105.205 179.881 108.293 178.479 110.803C178.261 109.604 177.805 108.702 177.137 108.073C176.171 107.164 174.866 106.918 173.52 107.029C170.869 107.248 167.761 108.872 165.711 110.275C162.327 111.774 159.274 113.564 156.947 115.138C155.778 115.928 154.788 116.666 154.029 117.287C153.281 117.899 152.725 118.424 152.451 118.786L152.264 119.034L152.404 119.312C156.461 127.377 156.856 136.412 155.679 144.46C154.513 152.438 151.809 159.4 149.66 163.401C142.421 168.384 140.939 175.939 141.988 183.26C142.928 189.817 145.899 196.254 148.655 200.678C138.417 195.529 134.598 187.862 133.995 180.266C133.358 172.243 136.309 164.252 139.238 159.349L139.253 159.325L139.264 159.3C149.854 135.994 137.408 117.615 129.806 111.291C126.729 107.49 123.597 106.612 120.893 107.202C118.516 107.72 116.577 109.352 115.383 110.845C114.859 110.229 114.371 109.653 113.913 109.114C112.317 107.233 111.103 105.803 110.12 104.698C108.785 103.196 107.849 102.261 106.926 101.588C105.993 100.908 105.094 100.511 103.865 100.055C103.494 99.9168 103.093 99.7738 102.651 99.6159C101.624 99.2496 100.374 98.8032 98.742 98.1544C97.6976 97.7393 96.7499 97.7609 95.943 98.2367C95.1623 98.697 94.5989 99.5334 94.1876 100.565C93.3655 102.626 93.0453 105.737 93.0258 109.246C92.9908 115.522 93.9201 123.285 94.8971 129.189C80.5076 109.937 69.2813 102.073 60.9884 100.224C56.7039 99.2692 53.2034 99.921 50.4851 101.439C48.6087 102.487 47.121 103.938 46.0086 105.529C47.3959 94.0811 47.4484 85.4195 46.579 78.9594C45.6493 72.0507 43.658 67.6078 41.0623 64.9835C38.4478 62.3402 35.2744 61.5962 32.1344 61.9749C29.3409 62.3119 26.5702 63.5351 24.1983 65.0889C24.8578 47.5322 33.4599 34.7108 44.0481 25.7813C54.7947 16.7182 67.5691 11.6832 76.0844 9.81688C80.6302 10.9182 83.4667 9.90957 85.1038 8.02689C86.4093 6.52558 86.876 4.55112 86.9198 2.90809C88.7376 4.47152 89.1699 5.99964 89.0271 7.27085C88.8591 8.7671 87.8798 10.055 87.0052 10.7793Z" fill="black" stroke="white"/>
<path d="M109.776 139.927C110.926 140.462 112.294 140.052 112.959 138.973L154.745 71.2123C155.327 70.2686 156.697 70.2606 157.289 71.1975L157.712 70.9302L157.289 71.1975L268.235 246.518C268.867 247.516 268.149 248.82 266.968 248.82H3.30469C2.17734 248.82 1.45291 247.623 1.97582 246.624L67.3574 121.748C67.7291 121.038 68.5932 120.746 69.3196 121.084L109.776 139.927Z" fill="url(#paint0_radial_5_60)" stroke="white"/>
<path d="M156.965 147.523C157.474 146.865 158.421 146.746 159.077 147.259L197.131 177.04C198.305 177.959 200.017 177.653 200.799 176.384L220.165 144.981C220.743 144.043 222.102 144.028 222.701 144.953L288.581 246.668C289.227 247.666 288.511 248.983 287.322 248.983H38.8889C37.5676 248.983 36.8917 247.399 37.8062 246.445L104.965 176.41C105.411 175.944 106.105 175.816 106.688 176.092L125.533 184.991C126.594 185.492 127.861 185.187 128.579 184.259L156.965 147.523Z" fill="url(#paint1_radial_5_60)" stroke="white"/>
<path d="M109.776 139.927C110.926 140.462 112.294 140.052 112.96 138.973L154.745 71.2123C155.327 70.2686 156.697 70.2606 157.29 71.1975L175.185 99.4753C175.429 99.8623 175.484 100.34 175.333 100.773L169.734 116.784C169.377 117.803 168.094 118.123 167.3 117.391L156.105 107.056C154.807 105.858 152.71 106.347 152.076 107.996L139.448 140.828C139.022 141.935 137.54 142.133 136.838 141.177L134.189 137.564C133.13 136.12 130.941 136.225 130.025 137.763L116.058 161.207C115.564 162.036 114.427 162.19 113.731 161.521L102.167 150.42C101.088 149.384 99.3477 149.521 98.4439 150.713L87.9043 164.606C87.3769 165.301 86.3699 165.401 85.716 164.823L58.6257 140.888C58.1084 140.431 57.9698 139.68 58.29 139.068L67.3575 121.748C67.7292 121.038 68.5933 120.746 69.3197 121.084L109.776 139.927Z" fill="url(#paint2_diamond_5_60)" stroke="white"/>
<defs>
<radialGradient id="paint0_radial_5_60" cx="0" cy="0" r="1" gradientUnits="userSpaceOnUse" gradientTransform="translate(114.6 148.625) rotate(-4.89911) scale(21.077 49.5834)">
<stop stop-color="#3F140E"/>
<stop offset="1" stop-color="#4F110E"/>
</radialGradient>
<radialGradient id="paint1_radial_5_60" cx="0" cy="0" r="1" gradientUnits="userSpaceOnUse" gradientTransform="translate(146.4 167.825) rotate(67.76) scale(160.111 382.629)">
<stop stop-color="#1F0306"/>
<stop offset="0.760417" stop-color="#3A080B"/>
</radialGradient>
<radialGradient id="paint2_diamond_5_60" cx="0" cy="0" r="1" gradientUnits="userSpaceOnUse" gradientTransform="translate(134.4 199.625) rotate(-97.681) scale(184.051 222.59)">
<stop stop-color="#FB0E01"/>
<stop offset="1" stop-color="#FC7C15"/>
</radialGradient>
</defs>
</svg>
